<?xml version="1.0" encoding="UTF-8"?>
<!DOCTYPE svg PUBLIC "-//W3C//DTD SVG 1.1//EN" "http://www.w3.org/Graphics/SVG/1.1/DTD/svg11.dtd">
<!-- Creator: CorelDRAW -->
<svg xmlns="http://www.w3.org/2000/svg" xml:space="preserve" width="263px" height="60px" version="1.1" style="shape-rendering:geometricPrecision; text-rendering:geometricPrecision; image-rendering:optimizeQuality; fill-rule:evenodd; clip-rule:evenodd"
viewBox="0 0 263 60"
 xmlns:xlink="http://www.w3.org/1999/xlink"
 xmlns:xodm="http://www.corel.com/coreldraw/odm/2003">
 <defs>
  <style type="text/css">
   <![CDATA[
    .fil0 {fill:#2B2A29;fill-rule:nonzero}
   ]]>
  </style>
 </defs>
 <g id="Layer_x0020_1">
  <metadata id="CorelCorpID_0Corel-Layer"/>
  <path class="fil0" d="M29.42 14.91c5.3,0 10.13,2.71 12.92,7.23 0.6,0.97 1.88,1.28 2.85,0.67 0.97,-0.6 1.28,-1.87 0.68,-2.85 -3.55,-5.76 -9.7,-9.19 -16.46,-9.19 -10.64,0 -19.31,8.66 -19.31,19.31 0,10.65 8.67,19.31 19.31,19.31 6.82,0 13.2,-3.65 16.66,-9.53 0.58,-0.98 0.25,-2.25 -0.74,-2.83 -0.99,-0.59 -2.26,-0.26 -2.84,0.73 -2.72,4.62 -7.73,7.49 -13.08,7.49 -8.36,0 -15.17,-6.81 -15.17,-15.17 0.01,-8.36 6.81,-15.17 15.18,-15.17zm29.62 14.93c0,-1.14 -0.93,-2.07 -2.08,-2.07l-27.54 0c-1.14,0 -2.07,0.93 -2.07,2.07 0,1.15 0.93,2.08 2.07,2.08l25.4 0c-0.94,13.19 -11.97,23.63 -25.4,23.63 -14.04,0 -25.47,-11.42 -25.47,-25.47 0,-14.04 11.43,-25.46 25.47,-25.46 8.91,0 17.29,4.75 21.87,12.41 0.59,0.98 1.86,1.3 2.85,0.71 0.98,-0.58 1.3,-1.86 0.71,-2.84 -5.32,-8.9 -15.07,-14.43 -25.43,-14.43 -16.33,0 -29.62,13.28 -29.62,29.61 0,16.33 13.29,29.62 29.62,29.62 16.33,0 29.61,-13.29 29.61,-29.62 0,-0.04 0,-0.08 0,-0.12 0,-0.04 0.01,-0.08 0.01,-0.12zm15.27 -5.76l0 -23.78 1.77 0 0 5.77 6.93 0c1.92,0 3.33,0.5 4.23,1.48 0.89,0.98 1.34,2.51 1.34,4.57l0 11.96 -1.77 0 0 -12.17c0,-2.82 -1.27,-4.24 -3.8,-4.24l-6.93 0 0 16.41 -1.77 0 0 0zm18.69 -18.01l8.73 0c2.87,0 4.31,1.51 4.31,4.52l0 11.11c0,0.87 -0.18,1.48 -0.53,1.84 -0.35,0.36 -1.05,0.54 -2.09,0.54l-6.93 0c-1.74,0 -2.99,-0.43 -3.73,-1.29 -0.75,-0.86 -1.12,-2.24 -1.12,-4.15 0,-1.87 0.37,-3.23 1.12,-4.07 0.74,-0.84 1.99,-1.26 3.73,-1.26l7.78 0 0 -3.02c0,-0.75 -0.2,-1.37 -0.61,-1.87 -0.41,-0.5 -1.05,-0.75 -1.93,-0.75l-8.73 0 0 -1.6zm11.28 8.84l-8.26 0c-1,0 -1.67,0.31 -2.02,0.93 -0.35,0.63 -0.53,1.56 -0.53,2.8 0,1.25 0.18,2.2 0.53,2.86 0.35,0.66 1.02,0.98 2.02,0.98l7.41 0c0.56,0 0.85,-0.27 0.85,-0.81l0 -6.76zm7.33 -11.96l-1.91 0 0 -2.65 1.91 0 0 2.65zm-1.84 21.13l0 -18.01 1.77 0 0 18.01 -1.77 0zm5.51 0l0 -11.82c0,-4.12 2,-6.18 6.01,-6.18l1.23 0 0 1.59 -1.23 0c-1.52,0 -2.61,0.41 -3.26,1.21 -0.66,0.8 -0.98,2.07 -0.98,3.79l0 11.41 -1.77 0zm9.61 0l-2.04 0 0 -2.96 2.04 0 0 2.96zm-38.04 29.48l-5.86 0c-2.76,0 -4.69,-0.78 -5.8,-2.34 -1.12,-1.57 -1.67,-3.84 -1.67,-6.82 0,-2.99 0.55,-5.25 1.65,-6.79 1.1,-1.54 3.04,-2.31 5.82,-2.31l6.79 0c2.06,0 3.1,1.03 3.1,3.1l0 13.75c0,2.59 -0.63,4.48 -1.88,5.67 -1.25,1.18 -3.25,1.77 -6.01,1.77l-8.2 0 0 -3.1 8.2 0c2.29,0 3.58,-0.98 3.86,-2.93zm-1.04 -15.16l-3.82 0c-0.94,0 -1.71,0.14 -2.31,0.42 -0.59,0.27 -1.03,0.71 -1.31,1.3 -0.28,0.6 -0.46,1.22 -0.55,1.85 -0.09,0.63 -0.14,1.44 -0.14,2.43 0,0.98 0.05,1.79 0.14,2.42 0.09,0.63 0.28,1.25 0.55,1.86 0.28,0.61 0.72,1.06 1.31,1.35 0.6,0.29 1.37,0.43 2.31,0.43l4.86 0 0 -11.03c0,-0.68 -0.35,-1.03 -1.04,-1.03zm8.24 15.16l0 -24.11 4.03 0 0 24.11 -4.03 0zm8.95 -16.43c1.53,-1.36 4,-2.03 7.4,-2.03 3.4,0 5.87,0.67 7.41,2.03 1.54,1.36 2.31,3.78 2.31,7.27 0,3.53 -0.77,5.98 -2.29,7.34 -1.53,1.35 -4,2.03 -7.43,2.03 -3.42,0 -5.89,-0.68 -7.42,-2.03 -1.53,-1.36 -2.29,-3.81 -2.29,-7.34 0,-3.49 0.77,-5.92 2.31,-7.27zm1.86 7.27c0,2.27 0.41,3.88 1.24,4.84 0.82,0.95 2.26,1.43 4.3,1.43 2.05,0 3.48,-0.48 4.31,-1.43 0.83,-0.96 1.24,-2.57 1.24,-4.84 0,-2.25 -0.41,-3.85 -1.24,-4.79 -0.83,-0.94 -2.26,-1.41 -4.31,-1.41 -2.04,0 -3.48,0.47 -4.3,1.41 -0.83,0.94 -1.24,2.54 -1.24,4.79zm27.36 9.16l-6.38 0c-2.06,0 -3.09,-1.03 -3.09,-3.1l0 -21.01 4.02 0 0 5.85 5.45 0c2.78,0 4.72,0.77 5.82,2.31 1.1,1.54 1.66,3.8 1.66,6.79 0,2.98 -0.56,5.26 -1.67,6.82 -1.12,1.56 -3.06,2.34 -5.81,2.34zm-5.45 -15.16l0 11.03c0,0.68 0.35,1.03 1.04,1.03l3.41 0c1.77,0 2.93,-0.5 3.48,-1.52 0.55,-1.01 0.82,-2.52 0.82,-4.54 0,-0.99 -0.04,-1.8 -0.13,-2.43 -0.1,-0.63 -0.28,-1.25 -0.55,-1.85 -0.28,-0.59 -0.72,-1.03 -1.31,-1.3 -0.6,-0.28 -1.37,-0.42 -2.31,-0.42l-4.45 0zm16.33 -3.1l10.37 0c1.68,0 2.95,0.5 3.82,1.48 0.88,0.99 1.31,2.29 1.31,3.89l0 9.79c0,2.07 -1.03,3.1 -3.1,3.1l-9.2 0c-3.03,0 -4.54,-1.9 -4.54,-5.68 0,-1.77 0.37,-3.16 1.13,-4.17 0.76,-1.01 1.9,-1.52 3.41,-1.52l8.27 0 0 -1.17c0,-1.75 -0.85,-2.62 -2.55,-2.62l-8.92 0 0 -3.1 0 0zm11.48 9.99l-6.72 0c-1.29,0 -1.93,0.86 -1.93,2.59 0,1.72 0.64,2.58 1.93,2.58l5.68 0c0.69,0 1.04,-0.35 1.04,-1.04l0 -4.13zm7.19 8.27l0 -24.11 4.03 0 0 24.11 -4.03 0zm7.2 0l0 -15.16c0,-2.07 1.04,-3.1 3.1,-3.1l15.82 0c2.25,0 3.99,0.47 5.23,1.41 1.24,0.94 1.86,2.55 1.86,4.82l0 12.03 -4.03 0 0 -10.96c0,-1.42 -0.3,-2.48 -0.89,-3.17 -0.6,-0.68 -1.58,-1.03 -2.93,-1.03l-3.13 0 0 15.16 -4.04 0 0 -15.16 -5.92 0c-0.69,0 -1.03,0.35 -1.03,1.03l0 14.13 -4.04 0zm45.65 0l-10.13 0c-1.42,0 -2.6,-0.19 -3.53,-0.58 -0.93,-0.39 -1.64,-1.01 -2.12,-1.85 -0.48,-0.83 -0.81,-1.77 -0.98,-2.8 -0.17,-1.04 -0.26,-2.35 -0.26,-3.93 0,-3.54 0.67,-5.97 2.02,-7.3 1.34,-1.34 3.61,-2 6.8,-2 2.85,0 5.02,0.52 6.53,1.56 1.5,1.05 2.25,2.94 2.25,5.67 0,2.3 -0.94,3.45 -2.82,3.45l-10.61 0c0,1.58 0.26,2.76 0.77,3.53 0.52,0.77 1.57,1.15 3.16,1.15l8.92 0 0 3.1zm-12.85 -10.89l8.37 0c0.59,0 0.89,-0.35 0.89,-1.06 0,-1.13 -0.44,-1.98 -1.32,-2.55 -0.89,-0.58 -1.98,-0.86 -3.29,-0.86 -1.7,0 -2.9,0.35 -3.6,1.05 -0.7,0.7 -1.05,1.84 -1.05,3.42zm32.44 -13.22l0 21.01c0,2.07 -1.03,3.1 -3.1,3.1l-6.37 0c-2.76,0 -4.69,-0.78 -5.8,-2.34 -1.12,-1.57 -1.67,-3.84 -1.67,-6.82 0,-2.99 0.55,-5.25 1.65,-6.79 1.1,-1.54 3.04,-2.31 5.82,-2.31l5.45 0 0 -5.85 4.02 0zm-4.02 8.95l-4.45 0c-0.94,0 -1.71,0.14 -2.31,0.42 -0.59,0.27 -1.03,0.71 -1.31,1.3 -0.27,0.6 -0.46,1.22 -0.55,1.85 -0.09,0.63 -0.14,1.44 -0.14,2.43 0,0.98 0.05,1.79 0.14,2.42 0.09,0.63 0.28,1.26 0.55,1.86 0.28,0.61 0.72,1.06 1.31,1.35 0.6,0.29 1.37,0.43 2.31,0.43l3.41 0c0.69,0 1.04,-0.35 1.04,-1.03l0 -11.03zm11.23 -5.51l-4.03 0 0 -3.72 4.03 0 0 3.72zm-4.03 20.67l0 -18.26 4.03 0 0 18.26 -4.03 0zm11.23 0l-4.03 0 0 -24.11 4.03 0 0 24.11zm13.58 0l-4.96 0 -6.13 -6.55c-0.85,-0.96 -1.28,-1.92 -1.28,-2.89 0,-0.94 0.43,-1.86 1.28,-2.76l5.51 -6.06 4.68 0 -6.85 7.37c-0.39,0.39 -0.59,0.83 -0.59,1.31 0,0.46 0.28,1 0.86,1.62l7.48 7.96z"/>
 </g>
</svg>
